<svg xmlns="http://www.w3.org/2000/svg" viewBox="0 0 2000 2000">
  <g fill="#fff" opacity="0.05">
    <path
      d="M1921.33,280.41a2.2,2.2,0,1,1,4.13,1.51l-10.17,27.94a2.2,2.2,0,1,1-4.13-1.51Zm-20,33.19a2.2,2.2,0,1,0,4.13,1.5l5.23-14.37a2.2,2.2,0,1,0-4.13-1.5Z" />
    <path
      d="M1923.41,277.36a3.8,3.8,0,0,1,3.56,5.1l-10.17,28a3.8,3.8,0,0,1-7.37-1.55l-2.47,6.79a3.8,3.8,0,0,1-3.58,2.5,3.58,3.58,0,0,1-1.29-.23,3.73,3.73,0,0,1-2.14-2,3.79,3.79,0,0,1-.13-2.9l5.23-14.37a3.83,3.83,0,0,1,3.58-2.51,3.73,3.73,0,0,1,1.29.23,3.79,3.79,0,0,1,2.15,2,3.87,3.87,0,0,1,.35,1.85l7.41-20.35a3.81,3.81,0,0,1,3.58-2.51m0-2.2a6,6,0,0,0-5.65,3.95L1912,295a5.68,5.68,0,0,0-1.3-.66,6,6,0,0,0-7.69,3.59l-5.23,14.37a6,6,0,0,0,5.62,8.05,6,6,0,0,0,5.65-4l.84-2.31a6.11,6.11,0,0,0,1.3.66,6,6,0,0,0,7.69-3.59L1929,283.22a6,6,0,0,0-5.62-8.06Z" />
    <path
      d="M929.66,905.82a2.2,2.2,0,1,1-4.13-1.5l7.56-20.78a2.2,2.2,0,1,1,4.13,1.51Zm16.76-24.27a2.2,2.2,0,1,0-4.13-1.51l-3.72,10.23a2.2,2.2,0,1,0,4.13,1.51Z" />
    <path
      d="M944.37,877a3.81,3.81,0,0,1,1.29.23,3.73,3.73,0,0,1,2.14,2,3.79,3.79,0,0,1,.13,2.9l-3.73,10.24a3.8,3.8,0,0,1-4.87,2.27,3.73,3.73,0,0,1-2.14-2,3.85,3.85,0,0,1-.35-1.85l-5.67,15.59a3.82,3.82,0,0,1-3.58,2.5,3.76,3.76,0,0,1-3.44-2.19,3.82,3.82,0,0,1-.12-2.91L931.59,883a3.79,3.79,0,0,1,7-.31,3.73,3.73,0,0,1,.35,1.85l1.84-5a3.81,3.81,0,0,1,3.58-2.51m0-2.2a6,6,0,0,0-5.65,4l-.21.57a6,6,0,0,0-3.34-1,6,6,0,0,0-5.65,4L922,903a6,6,0,0,0,5.63,8.05,6,6,0,0,0,5.64-4l4-11.11a6,6,0,0,0,3.34,1,6,6,0,0,0,5.65-3.95L950,882.85a6,6,0,0,0-3.58-7.7,5.92,5.92,0,0,0-2-.36Z" />
    <path d="M508.15,1498.05a2.2,2.2,0,1,1,4.13,1.5L508,1511.43a2.2,2.2,0,1,1-4.14-1.5Z" />
    <path
      d="M510.23,1495a3.77,3.77,0,0,1,3.55,5.1L509.46,1512a3.82,3.82,0,0,1-3.58,2.51,3.77,3.77,0,0,1-1.29-.23,3.81,3.81,0,0,1-2.27-4.88l4.33-11.88a3.8,3.8,0,0,1,3.58-2.5m0-2.2a6,6,0,0,0-5.65,4l-4.33,11.88a6,6,0,0,0,3.59,7.7,5.92,5.92,0,0,0,2,.36,6,6,0,0,0,5.65-4l4.32-11.88a6,6,0,0,0-3.58-7.69,5.92,5.92,0,0,0-2-.36Z" />
    <path
      d="M1398.09,503a2.2,2.2,0,1,1,4.13,1.51l-9.4,25.82a2.2,2.2,0,1,1-4.13-1.51Zm-19,30.55a2.2,2.2,0,1,0,4.13,1.5l4.78-13.14a2.2,2.2,0,1,0-4.13-1.51Z" />
    <path
      d="M1400.17,499.9a3.8,3.8,0,0,1,3.56,5.1l-9.4,25.82a3.83,3.83,0,0,1-3.58,2.51,3.81,3.81,0,0,1-3.44-2.2,3.85,3.85,0,0,1-.35-1.85l-2.28,6.27a3.8,3.8,0,0,1-7.14-2.6l4.79-13.14a3.8,3.8,0,0,1,7.36,1.54l6.9-19a3.82,3.82,0,0,1,3.58-2.5m0-2.2a6,6,0,0,0-5.65,3.95l-5.27,14.47a6,6,0,0,0-3.34-1,6,6,0,0,0-5.65,3.95l-4.78,13.15a6,6,0,0,0,5.62,8.06,6,6,0,0,0,5.65-4l.65-1.79a6.11,6.11,0,0,0,1.3.66,6,6,0,0,0,7.69-3.59l9.4-25.82a6,6,0,0,0-5.62-8.06Z" />
    <path
      d="M1551,1736.8a2.2,2.2,0,1,1-4.13-1.5l6.82-18.73a2.2,2.2,0,1,1,4.13,1.51Zm15.84-21.73a2.2,2.2,0,1,0-4.14-1.5l-3.29,9a2.2,2.2,0,1,0,4.13,1.5Z" />
    <path
      d="M1564.76,1710.52a3.76,3.76,0,0,1,1.29.22,3.82,3.82,0,0,1,2.27,4.88l-3.29,9.05a3.8,3.8,0,0,1-7.37-1.55l-5.17,14.23a3.83,3.83,0,0,1-3.58,2.51,3.73,3.73,0,0,1-1.29-.23,3.81,3.81,0,0,1-2.27-4.88l6.81-18.72a3.83,3.83,0,0,1,3.58-2.51,3.8,3.8,0,0,1,3.78,4l1.66-4.55a3.81,3.81,0,0,1,3.58-2.5m0-2.2a6,6,0,0,0-5.65,4l0,.07a5.81,5.81,0,0,0-1.29-.66,6,6,0,0,0-7.7,3.59l-6.81,18.73a6,6,0,1,0,11.27,4.1l3.55-9.75a6.15,6.15,0,0,0,1.3.67,6,6,0,0,0,7.69-3.6l3.3-9.05a6,6,0,0,0-.2-4.58,6,6,0,0,0-5.43-3.47Z" />
    <path
      d="M751.52,584.53a2.2,2.2,0,1,1,4.13,1.5l-6.44,17.71a2.2,2.2,0,1,1-4.13-1.51Zm-10.24,6.36a2.2,2.2,0,1,0,4.13,1.5l4.17-11.45a2.2,2.2,0,1,0-4.13-1.51Zm19-1.07a2.2,2.2,0,1,0,4.13,1.51l3-8.29a2.2,2.2,0,1,0-4.13-1.5Z" />
    <path
      d="M747.53,576a4.29,4.29,0,0,1,1.42.25,4.21,4.21,0,0,1,2.51,5.39l0,0a4.23,4.23,0,0,1,2.16-.6,4.35,4.35,0,0,1,1.43.25,4.21,4.21,0,0,1,2.5,5.39l-6.44,17.71a4.22,4.22,0,0,1-4,2.77,4.1,4.1,0,0,1-1.43-.25,4.2,4.2,0,0,1-2.5-5.39l2.29-6.3a4.22,4.22,0,0,1-2.15.6,4.24,4.24,0,0,1-3.8-2.43,4.21,4.21,0,0,1-.14-3.21l4.17-11.46a4.21,4.21,0,0,1,4-2.77m17.79,2.1a4.11,4.11,0,0,1,1.43.26,4.2,4.2,0,0,1,2.51,5.38l-3,8.29a4.21,4.21,0,0,1-4,2.77,4.35,4.35,0,0,1-1.43-.25,4.21,4.21,0,0,1-2.51-5.39l3-8.29a4.22,4.22,0,0,1,4-2.77m-17.79-3.9a6,6,0,0,0-5.65,4l-4.17,11.46a6,6,0,0,0,3.58,7.7,6.34,6.34,0,0,0,1.42.32l-1.21,3.32a6,6,0,0,0,3.59,7.7,5.88,5.88,0,0,0,2,.36,6,6,0,0,0,5.65-4L757,593.41a6,6,0,0,0,5.28,3.17,6,6,0,0,0,5.64-4l3-8.29a6,6,0,0,0-3.58-7.7,6.23,6.23,0,0,0-2-.36,6,6,0,0,0-5.64,4l-.81,2.2a6,6,0,0,0-5.27-3.17h-.15a6,6,0,0,0-5.92-5.09Z" />
    <path d="M48.18,939.35a2.2,2.2,0,1,1,4.13,1.5l-1.93,5.3a2.2,2.2,0,1,1-4.13-1.5Z" />
    <path
      d="M50.26,936.3a3.8,3.8,0,0,1,3.56,5.1l-1.93,5.3a3.83,3.83,0,0,1-3.58,2.51A3.77,3.77,0,0,1,47,949a3.81,3.81,0,0,1-2.27-4.88l1.93-5.3a3.8,3.8,0,0,1,3.58-2.5m0-2.2a6,6,0,0,0-5.65,3.95l-1.93,5.3A6,6,0,1,0,54,947.45l1.92-5.3a6,6,0,0,0-5.62-8Z" />
    <path d="M880.55,1546.37a2.2,2.2,0,1,1,4.13,1.5l-3,8.35a2.2,2.2,0,1,1-4.13-1.5Z" />
    <path
      d="M882.63,1543.32a3.77,3.77,0,0,1,3.55,5.1l-3,8.35a3.8,3.8,0,0,1-7,.31,3.77,3.77,0,0,1-.12-2.91l3-8.35a3.8,3.8,0,0,1,3.58-2.5m0-2.2a6,6,0,0,0-5.65,4l-3,8.35a6,6,0,0,0,5.63,8.06,6,6,0,0,0,5.64-4l3-8.35a6,6,0,0,0-5.62-8.05Z" />
    <path
      d="M604.5,1659.61a2.2,2.2,0,1,1,4.14,1.51l-3.16,8.66a2.2,2.2,0,1,1-4.13-1.51Zm-11.28,9.22a2.2,2.2,0,1,0,4.14,1.51l1.18-3.25a2.2,2.2,0,0,0-4.14-1.5Z" />
    <path
      d="M606.58,1656.56a3.55,3.55,0,0,1,1.29.23,3.8,3.8,0,0,1,2.27,4.87l-3.15,8.66a3.83,3.83,0,0,1-3.58,2.51,3.81,3.81,0,0,1-3.44-2.2,3.72,3.72,0,0,1-.34-1.85l-.77,2.1a3.82,3.82,0,0,1-3.58,2.51,3.77,3.77,0,0,1-1.29-.23,3.7,3.7,0,0,1-2.14-2,3.75,3.75,0,0,1-.13-2.9l1.18-3.25a3.81,3.81,0,0,1,3.58-2.5,3.55,3.55,0,0,1,1.29.23,3.81,3.81,0,0,1,2.49,3.82l2.74-7.53a3.83,3.83,0,0,1,3.58-2.5m0-2.2a6,6,0,0,0-5.65,4l-1.11,3a6,6,0,0,0-9,2.93l-1.18,3.24a6,6,0,0,0,.2,4.59,6,6,0,0,0,3.39,3.11,5.88,5.88,0,0,0,2,.36,6,6,0,0,0,4.37-1.89,6,6,0,0,0,9.41-2.62l3.15-8.67a6,6,0,0,0-5.63-8.05Z" />
    <path d="M879.93,135a2.2,2.2,0,1,1,4.13,1.5l-5.6,15.4a2.2,2.2,0,1,1-4.14-1.5Z" />
    <path
      d="M882,131.92a3.79,3.79,0,0,1,3.43,2.2,3.77,3.77,0,0,1,.12,2.91l-5.6,15.4a3.83,3.83,0,0,1-3.58,2.51,3.81,3.81,0,0,1-3.56-5.11l5.61-15.4a3.81,3.81,0,0,1,3.58-2.51m0-2.2a6,6,0,0,0-5.65,4l-5.61,15.4a6,6,0,0,0,.2,4.58,6,6,0,0,0,5.43,3.48,6,6,0,0,0,5.65-4l5.6-15.4a6,6,0,0,0-3.58-7.7,6.22,6.22,0,0,0-2-.36Z" />
    <path d="M761.63,320.28a2.2,2.2,0,1,1,4.13,1.5l-1.82,5a2.2,2.2,0,1,1-4.13-1.5Z" />
    <path
      d="M763.71,317.22a3.79,3.79,0,0,1,3.43,2.2,3.77,3.77,0,0,1,.12,2.91l-1.81,5a3.83,3.83,0,0,1-3.58,2.51,3.81,3.81,0,0,1-3.44-2.2,3.81,3.81,0,0,1-.12-2.91l1.82-5a3.81,3.81,0,0,1,3.58-2.51m0-2.2a6,6,0,0,0-5.65,4l-1.82,5a6,6,0,0,0,3.58,7.69,6,6,0,0,0,7.69-3.59l1.82-5a6,6,0,0,0-5.62-8.06Z" />
    <path d="M507.38,1263.61a2.2,2.2,0,1,1,4.13,1.5l-2.79,7.67a2.2,2.2,0,1,1-4.13-1.5Z" />
    <path
      d="M509.46,1260.55a3.81,3.81,0,0,1,3.56,5.11l-2.79,7.67a3.8,3.8,0,1,1-7.14-2.6l2.79-7.67a3.81,3.81,0,0,1,3.58-2.51m0-2.2a6,6,0,0,0-5.65,4L501,1270a6,6,0,0,0,5.63,8,6,6,0,0,0,5.64-4l2.8-7.67a6,6,0,0,0-.2-4.58,6,6,0,0,0-5.43-3.48Z" />
    <path
      d="M1454.58,1328.58a2.2,2.2,0,1,1-4.14-1.51l2.7-7.39a2.2,2.2,0,1,1,4.13,1.51Zm10.7-7.65a2.2,2.2,0,1,0-4.13-1.5l-.91,2.51a2.2,2.2,0,1,0,4.13,1.5Z" />
    <path
      d="M1463.23,1316.38a3.58,3.58,0,0,1,1.29.23,3.73,3.73,0,0,1,2.14,2,3.79,3.79,0,0,1,.13,2.9l-.92,2.51a3.8,3.8,0,0,1-7.36-1.54l-2.43,6.67a3.81,3.81,0,0,1-3.58,2.51,3.81,3.81,0,0,1-3.56-5.1l2.69-7.39a3.83,3.83,0,0,1,3.58-2.51,3.77,3.77,0,0,1,1.29.23,3.68,3.68,0,0,1,2.14,2,3.62,3.62,0,0,1,.35,1.85l.66-1.8a3.8,3.8,0,0,1,3.58-2.5m0-2.2a6,6,0,0,0-4.15,1.66,6.22,6.22,0,0,0-1.82-1,6,6,0,0,0-7.7,3.59l-2.69,7.39a6,6,0,0,0,.2,4.59,6,6,0,0,0,3.39,3.11,5.88,5.88,0,0,0,2,.36,6,6,0,0,0,5.65-3.95l.8-2.2a6.62,6.62,0,0,0,1.3.66,6.13,6.13,0,0,0,2,.36,6,6,0,0,0,5.65-4l.91-2.51a6,6,0,0,0-3.58-7.69,5.88,5.88,0,0,0-2-.36Z" />
    <path d="M616.55,851.41a2.2,2.2,0,1,1,4.13,1.51L614.83,869a2.2,2.2,0,1,1-4.13-1.5Z" />
    <path
      d="M618.62,848.36a3.79,3.79,0,0,1,3.56,5.1l-5.84,16.07a3.84,3.84,0,0,1-3.58,2.5,3.55,3.55,0,0,1-1.29-.23,3.8,3.8,0,0,1-2.27-4.87L615,850.87a3.83,3.83,0,0,1,3.58-2.51m0-2.2a6,6,0,0,0-5.64,4l-5.85,16.07a6,6,0,0,0,5.63,8.05,6,6,0,0,0,5.64-4l5.85-16.06a6,6,0,0,0-5.63-8.06Z" />
    <path
      d="M1704.35,1521.42a2.2,2.2,0,1,1,4.13,1.5l-2.46,6.77a2.2,2.2,0,1,1-4.13-1.5Zm-10.43,6.87a2.2,2.2,0,1,0,4.14,1.51l.78-2.16a2.2,2.2,0,1,0-4.13-1.5Z" />
    <path
      d="M1706.43,1518.37a3.58,3.58,0,0,1,1.29.23,3.73,3.73,0,0,1,2.14,2,3.79,3.79,0,0,1,.13,2.9l-2.47,6.77a3.8,3.8,0,0,1-7.36-1.55l-.6,1.65a3.82,3.82,0,0,1-3.58,2.51,3.8,3.8,0,0,1-3.56-5.1l.78-2.16a3.8,3.8,0,0,1,7.37,1.55l2.28-6.27a3.82,3.82,0,0,1,3.58-2.5m0-2.2a6,6,0,0,0-5.65,3.95l-.65,1.79a6.11,6.11,0,0,0-1.3-.66,6,6,0,0,0-2-.36,6,6,0,0,0-5.65,3.95l-.79,2.15a6,6,0,0,0,3.59,7.7,5.92,5.92,0,0,0,2,.36,3.77,3.77,0,0,1,5.92-.46,5.88,5.88,0,0,0,2,.36,6,6,0,0,0,5.65-4l2.46-6.77a6,6,0,0,0-3.58-7.69,5.88,5.88,0,0,0-2-.36Z" />
    <path
      d="M1518.7-2.54a2.21,2.21,0,0,1,2.82-1.32A2.23,2.23,0,0,1,1522.83-1l-12,33.1a2.2,2.2,0,1,1-4.13-1.5ZM1505.11,13a2.2,2.2,0,1,0,4.13,1.5l8.17-22.45a2.21,2.21,0,0,0-1.31-2.82,2.2,2.2,0,0,0-2.82,1.32Zm20.75-6A2.2,2.2,0,1,0,1530,8.51l6.21-17a2.21,2.21,0,0,0-1.32-2.82,2.21,2.21,0,0,0-2.82,1.32Z" />
    <path
      d="M1534.14-13.09a3.76,3.76,0,0,1,1.29.22A3.81,3.81,0,0,1,1537.7-8l-6.2,17.05a3.81,3.81,0,0,1-4.88,2.27,3.8,3.8,0,0,1-2.26-4.87l6.2-17a3.81,3.81,0,0,1,3.58-2.5m-18.79.62a3.76,3.76,0,0,1,1.29.22,3.81,3.81,0,0,1,2.27,4.88L1517.7-4a3.81,3.81,0,0,1,3.07-1.56,3.77,3.77,0,0,1,1.29.23,3.75,3.75,0,0,1,2.15,2,3.79,3.79,0,0,1,.12,2.9l-12,33.11a3.8,3.8,0,0,1-7.14-2.6l5.1-14a3.85,3.85,0,0,1-3.08,1.56,3.8,3.8,0,0,1-3.56-5.1L1511.77-10a3.82,3.82,0,0,1,3.58-2.5m18.79-2.82a6,6,0,0,0-5.65,3.95l-2.44,6.72a6,6,0,0,0-3.23-2.81,6.34,6.34,0,0,0-1.54-.34,6,6,0,0,0-3.88-6.54,6,6,0,0,0-2.05-.36,6,6,0,0,0-5.64,3.95l-8.17,22.45a6,6,0,0,0,3.58,7.69,5.86,5.86,0,0,0,1.42.33l-3.47,9.52a6,6,0,0,0,3.59,7.7,5.88,5.88,0,0,0,2,.36,6,6,0,0,0,5.65-4l8.29-22.78a6,6,0,0,0,10.92-.78l6.21-17a6,6,0,0,0-3.59-7.69,5.88,5.88,0,0,0-2-.36Z" />
    <path d="M180.42,228.79a2.2,2.2,0,1,1,4.13,1.51l-2.29,6.31a2.2,2.2,0,1,1-4.13-1.51Z" />
    <path
      d="M182.5,225.74a3.81,3.81,0,0,1,3.56,5.11l-2.3,6.3a3.8,3.8,0,1,1-7.14-2.59l2.3-6.31a3.81,3.81,0,0,1,3.58-2.51m0-2.2a6,6,0,0,0-5.65,4l-2.29,6.31a6,6,0,0,0,3.58,7.7,5.92,5.92,0,0,0,2,.36,6,6,0,0,0,5.65-4l2.29-6.31a6,6,0,0,0-3.58-7.7,5.92,5.92,0,0,0-2-.36Z" />
    <path
      d="M842.45,1156.34a2.2,2.2,0,1,1-4.14-1.51l9.62-26.41a2.2,2.2,0,1,1,4.13,1.51Zm19.3-31.28a2.2,2.2,0,1,0-4.13-1.51L852.71,1137a2.2,2.2,0,1,0,4.14,1.5Z" />
    <path
      d="M859.7,1120.5a3.8,3.8,0,0,1,3.56,5.1l-4.91,13.49a3.81,3.81,0,0,1-3.58,2.5,3.76,3.76,0,0,1-1.29-.22,3.82,3.82,0,0,1-2.49-3.83l-7,19.34a3.83,3.83,0,0,1-3.58,2.51,3.8,3.8,0,0,1-3.56-5.1l9.61-26.41a3.83,3.83,0,0,1,3.58-2.51,3.8,3.8,0,0,1,3.78,4.05l2.34-6.41a3.81,3.81,0,0,1,3.58-2.51m0-2.2a6,6,0,0,0-5.65,4l-.7,2a6.15,6.15,0,0,0-1.3-.67,6,6,0,0,0-7.69,3.59l-9.62,26.41a6,6,0,1,0,11.28,4.11l5.41-14.87a5.48,5.48,0,0,0,1.3.66,5.88,5.88,0,0,0,2,.36,6,6,0,0,0,5.65-4l4.91-13.48a6,6,0,0,0-3.59-7.7,5.88,5.88,0,0,0-2-.36Z" />
    <path
      d="M302.8,698.35a2.2,2.2,0,1,1,4.13,1.5l-6.39,17.58a2.2,2.2,0,1,1-4.13-1.51Zm-10.21,6.28a2.2,2.2,0,1,0,4.13,1.51l4.14-11.36a2.2,2.2,0,1,0-4.14-1.51Zm18.94-1a2.2,2.2,0,1,0,4.13,1.5l3-8.21a2.2,2.2,0,1,0-4.13-1.5Z" />
    <path
      d="M298.8,690.22a3.8,3.8,0,0,1,3.56,5.1l-.56,1.54a3.85,3.85,0,0,1,3.08-1.56,3.8,3.8,0,0,1,3.56,5.1L302,718a3.8,3.8,0,1,1-7.14-2.59l2.82-7.75a3.8,3.8,0,0,1-4.37,1.33,3.77,3.77,0,0,1-2.14-2,3.81,3.81,0,0,1-.12-2.91l4.13-11.35a3.83,3.83,0,0,1,3.58-2.51m17.79,2.13a3.58,3.58,0,0,1,1.29.23,3.8,3.8,0,0,1,2.27,4.87l-3,8.21a3.81,3.81,0,0,1-3.58,2.51h0a3.77,3.77,0,0,1-1.29-.23,3.81,3.81,0,0,1-2.27-4.88l3-8.21a3.8,3.8,0,0,1,3.58-2.5M298.8,688a6,6,0,0,0-5.65,4L289,703.33a6,6,0,0,0,3.58,7.7,5.86,5.86,0,0,0,1.42.33l-1.19,3.26a6,6,0,0,0,3.59,7.7,5.88,5.88,0,0,0,2,.36,6,6,0,0,0,5.65-3.95l4.19-11.53a6.06,6.06,0,0,0,5.28,3.17,6,6,0,0,0,5.65-4l3-8.21a6,6,0,0,0-3.59-7.69,5.92,5.92,0,0,0-2-.36,6,6,0,0,0-5.65,4l-.79,2.16a6,6,0,0,0-5.27-3.16h-.16a6.23,6.23,0,0,0-.49-1.61,6,6,0,0,0-3.39-3.11,5.88,5.88,0,0,0-2-.36Z" />
    <path d="M492.8,1679.23a2.2,2.2,0,1,1,4.14,1.5l-3.29,9a2.2,2.2,0,1,1-4.13-1.5Z" />
    <path
      d="M494.88,1676.17a3.8,3.8,0,0,1,3.56,5.11l-3.28,9a3.83,3.83,0,0,1-3.58,2.51,3.77,3.77,0,0,1-1.29-.23,3.81,3.81,0,0,1-2.27-4.88l3.28-9a3.82,3.82,0,0,1,3.58-2.51m0-2.2a6,6,0,0,0-5.65,4l-3.28,9a6,6,0,1,0,11.27,4.1l3.29-9a6,6,0,0,0-3.59-7.7,5.92,5.92,0,0,0-2-.36Z" />
    <path
      d="M1481.71,303.41a2.2,2.2,0,1,1,4.13,1.51L1475.26,334a2.2,2.2,0,0,1-4.14-1.5ZM1469,316.57a2.2,2.2,0,1,0,4.13,1.51l7.12-19.58a2.2,2.2,0,1,0-4.13-1.5Zm20.28-4.72a2.2,2.2,0,1,0,4.13,1.5l5.37-14.75a2.2,2.2,0,1,0-4.13-1.51Z" />
    <path
      d="M1478.2,294a3.8,3.8,0,0,1,3.56,5.1l-1,2.88a3.8,3.8,0,0,1,6.64,3.54l-10.59,29.08a3.81,3.81,0,0,1-3.58,2.5,3.76,3.76,0,0,1-1.29-.22,3.81,3.81,0,0,1-2.27-4.88l4.51-12.38a3.8,3.8,0,0,1-4.37,1.33,3.73,3.73,0,0,1-2.14-2,3.79,3.79,0,0,1-.13-2.9l7.13-19.58a3.8,3.8,0,0,1,3.58-2.5m18.53.09a3.81,3.81,0,0,1,1.29.23,3.73,3.73,0,0,1,2.14,2,3.79,3.79,0,0,1,.13,2.9l-5.37,14.76a3.8,3.8,0,1,1-7.15-2.6l5.38-14.76a3.82,3.82,0,0,1,3.58-2.5m-18.53-2.29a6,6,0,0,0-5.65,3.95l-7.13,19.57a6,6,0,0,0,.2,4.59A6,6,0,0,0,1469,323a5.75,5.75,0,0,0,1.42.33l-2.88,7.9a6,6,0,0,0,3.59,7.69,5.88,5.88,0,0,0,2,.36,6,6,0,0,0,5.65-3.95l7.23-19.86a6,6,0,0,0,10.92-.79l5.37-14.76a6,6,0,0,0-5.62-8.05,6,6,0,0,0-5.65,4l-2,5.54a5.91,5.91,0,0,0-3.23-2.81,6.3,6.3,0,0,0-1.66-.35,6,6,0,0,0-6-6.42Z" />
    <path
      d="M615.48,25a2.2,2.2,0,1,1-4.13-1.5L621-2.93a2.2,2.2,0,0,1,2.82-1.32,2.21,2.21,0,0,1,1.31,2.82Zm19.3-31.25a2.21,2.21,0,0,0-1.31-2.83,2.22,2.22,0,0,0-2.82,1.32l-4.9,13.48a2.2,2.2,0,1,0,4.13,1.5Z" />
    <path
      d="M632.73-10.85a3.81,3.81,0,0,1,1.29.23,3.8,3.8,0,0,1,2.14,2,3.81,3.81,0,0,1,.13,2.91L631.38,7.73a3.79,3.79,0,0,1-7,.31A3.88,3.88,0,0,1,624,6.18l-7,19.33A3.83,3.83,0,0,1,613.41,28a3.81,3.81,0,0,1-3.44-2.2,3.81,3.81,0,0,1-.12-2.91l9.6-26.39A3.82,3.82,0,0,1,623-6a3.76,3.76,0,0,1,1.29.22,3.79,3.79,0,0,1,2.15,2,3.76,3.76,0,0,1,.34,1.86l2.34-6.41a3.81,3.81,0,0,1,3.58-2.51m0-2.2a6,6,0,0,0-5.65,4l-.7,1.93a6.11,6.11,0,0,0-1.3-.66A6,6,0,0,0,623-8.18a6,6,0,0,0-5.64,3.95l-9.61,26.39a6,6,0,0,0,5.63,8.06,6,6,0,0,0,5.64-4l5.41-14.85a6,6,0,0,0,3.34,1,6,6,0,0,0,5.65-3.95L638.35-5a6,6,0,0,0-.19-4.59,6,6,0,0,0-3.39-3.11,5.92,5.92,0,0,0-2-.36Z" />
    <path d="M967.29,522.39a2.2,2.2,0,1,1,4.14,1.5l-2.17,6a2.2,2.2,0,1,1-4.13-1.5Z" />
    <path
      d="M969.37,519.33a3.81,3.81,0,0,1,3.56,5.11l-2.16,5.95a3.82,3.82,0,0,1-3.58,2.5,3.64,3.64,0,0,1-1.3-.23,3.8,3.8,0,0,1-2.26-4.87l2.16-5.95a3.83,3.83,0,0,1,3.58-2.51m0-2.2a6,6,0,0,0-5.65,4L961.56,527a6,6,0,0,0,5.63,8.05,6,6,0,0,0,5.64-4l2.17-5.95a6,6,0,0,0-.2-4.58,6,6,0,0,0-5.43-3.48Z" />
    <path d="M552.36,527.11a2.2,2.2,0,1,1,4.13,1.5l-3,8.17a2.2,2.2,0,1,1-4.13-1.5Z" />
    <path
      d="M554.44,524.05a3.81,3.81,0,0,1,3.56,5.11l-3,8.17a3.8,3.8,0,0,1-7.14-2.6l3-8.17a3.81,3.81,0,0,1,3.58-2.51m0-2.2a6,6,0,0,0-5.65,4l-3,8.17a6,6,0,0,0,.2,4.58,6,6,0,0,0,5.43,3.47,6,6,0,0,0,5.65-3.95l3-8.17a6,6,0,0,0-5.62-8.06Z" />
    <path d="M639.89,1080a2.2,2.2,0,1,1,4.13,1.51l-4.49,12.32a2.2,2.2,0,1,1-4.13-1.51Z" />
    <path
      d="M642,1077a3.8,3.8,0,0,1,3.56,5.11L641,1094.39a3.83,3.83,0,0,1-3.58,2.51,3.8,3.8,0,0,1-3.56-5.11l4.48-12.31A3.83,3.83,0,0,1,642,1077m0-2.2a6,6,0,0,0-5.65,4L631.83,1091a6,6,0,1,0,11.27,4.11l4.49-12.32a6,6,0,0,0-5.63-8.06Z" />
    <path d="M1168.08,1416.08a2.2,2.2,0,1,1,4.13,1.5l-2.64,7.28a2.2,2.2,0,1,1-4.13-1.51Z" />
    <path
      d="M1170.16,1413a3.55,3.55,0,0,1,1.29.23,3.75,3.75,0,0,1,2.14,2,3.82,3.82,0,0,1,.13,2.91l-2.65,7.27a3.8,3.8,0,1,1-7.14-2.6l2.65-7.27a3.8,3.8,0,0,1,3.58-2.5m0-2.2a6,6,0,0,0-5.65,4l-2.64,7.27a6,6,0,1,0,11.27,4.11l2.65-7.28a6,6,0,0,0-3.59-7.69,5.88,5.88,0,0,0-2-.36Z" />
    <path
      d="M1063.1,212.88a2.2,2.2,0,1,1-4.13-1.51l10.63-29.21a2.2,2.2,0,1,1,4.13,1.51Zm20.57-34.76a2.2,2.2,0,1,0-4.13-1.51l-5.5,15.1a2.2,2.2,0,1,0,4.14,1.51Z" />
    <path
      d="M1081.62,173.56a3.8,3.8,0,0,1,3.56,5.11l-5.5,15.1a3.83,3.83,0,0,1-3.58,2.5,3.79,3.79,0,0,1-3.43-2.2,3.73,3.73,0,0,1-.35-1.85l-7.72,21.2a3.8,3.8,0,0,1-7.14-2.59l10.63-29.21a3.83,3.83,0,0,1,3.58-2.51,3.77,3.77,0,0,1,1.29.23,3.78,3.78,0,0,1,2.49,3.82l2.59-7.09a3.81,3.81,0,0,1,3.58-2.51m0-2.2a6,6,0,0,0-5.65,3.95l-1,2.62a6.11,6.11,0,0,0-1.3-.66,6,6,0,0,0-7.69,3.59l-10.64,29.21a6,6,0,0,0,.2,4.59,6,6,0,0,0,5.43,3.47,6,6,0,0,0,5.65-3.95l6.09-16.73a6,6,0,0,0,3.34,1,6,6,0,0,0,5.65-3.95l5.49-15.1a6,6,0,0,0-3.58-7.7,5.92,5.92,0,0,0-2-.36Z" />
    <path d="M740.86,1528.45A2.2,2.2,0,1,1,745,1530l-11.74,32.25a2.2,2.2,0,1,1-4.13-1.5Z" />
    <path
      d="M742.93,1525.39a3.79,3.79,0,0,1,3.44,2.2,3.77,3.77,0,0,1,.12,2.91l-11.73,32.25a3.8,3.8,0,1,1-7.14-2.6l11.73-32.25a3.83,3.83,0,0,1,3.58-2.51m0-2.2a6,6,0,0,0-5.64,4l-11.74,32.25a6,6,0,1,0,11.27,4.1l11.74-32.25a6,6,0,0,0-5.63-8.06Z" />
    <path
      d="M491.56,286a2.2,2.2,0,1,1,4.13,1.5l-8.59,23.6a2.2,2.2,0,1,1-4.13-1.5Zm-18,27.79a2.2,2.2,0,1,0,4.13,1.5L482,303.38a2.2,2.2,0,1,0-4.13-1.51Z" />
    <path
      d="M493.64,282.89A3.81,3.81,0,0,1,497.2,288l-8.59,23.6a3.8,3.8,0,0,1-7,.31,3.88,3.88,0,0,1-.35-1.86l-2.08,5.74a3.82,3.82,0,0,1-3.58,2.5h0a3.76,3.76,0,0,1-1.29-.22,3.81,3.81,0,0,1-2.27-4.88l4.32-11.86a3.79,3.79,0,0,1,4.87-2.28,3.77,3.77,0,0,1,2.14,2,3.85,3.85,0,0,1,.35,1.85l6.36-17.47a3.81,3.81,0,0,1,3.58-2.51m0-2.2a6,6,0,0,0-5.65,4l-4.73,13A5.88,5.88,0,0,0,482,297a6,6,0,0,0-2-.36,6,6,0,0,0-5.65,3.95L470,312.44a6,6,0,1,0,11.27,4.1l.46-1.26a6.15,6.15,0,0,0,1.3.67,6.23,6.23,0,0,0,2,.36,6,6,0,0,0,5.64-4l8.59-23.6a6,6,0,0,0-3.58-7.7,6.17,6.17,0,0,0-2-.36Z" />
    <path
      d="M1843.67,504.68a2.2,2.2,0,1,1,4.13,1.5l-7.31,20.08a2.2,2.2,0,1,1-4.13-1.5Zm-10.76,7.78A2.2,2.2,0,1,0,1837,514l4.79-13.15a2.2,2.2,0,1,0-4.13-1.5Zm19.23-1.83a2.2,2.2,0,1,0,4.13,1.5l3.51-9.63a2.2,2.2,0,1,0-4.14-1.51Z" />
    <path
      d="M1839.77,495.86a4.1,4.1,0,0,1,1.43.25,4.21,4.21,0,0,1,2.51,5.39l-.12.32a4.21,4.21,0,0,1,2.15-.59,4.1,4.1,0,0,1,1.43.25,4.21,4.21,0,0,1,2.51,5.39L1842.37,527a4.22,4.22,0,0,1-4,2.76,4.2,4.2,0,0,1-3.93-5.64l2.64-7.25a4.23,4.23,0,0,1-2.16.6,4.1,4.1,0,0,1-1.42-.26,4.2,4.2,0,0,1-2.51-5.38l4.79-13.15a4.21,4.21,0,0,1,4-2.77m18,1.68a4.35,4.35,0,0,1,1.43.25,4.21,4.21,0,0,1,2.51,5.39l-3.51,9.64a4.22,4.22,0,0,1-4,2.76h0a4.19,4.19,0,0,1-3.79-2.42,4.18,4.18,0,0,1-.14-3.22l3.51-9.63a4.21,4.21,0,0,1,4-2.77m-18-3.48a6,6,0,0,0-5.65,3.95l-4.78,13.15a6,6,0,0,0,3.58,7.7,6.34,6.34,0,0,0,1.42.32l-1.55,4.28a6,6,0,1,0,11.27,4.1l4.86-13.34a5.86,5.86,0,0,0,3.23,2.8,5.92,5.92,0,0,0,2,.36,6,6,0,0,0,5.65-4l3.51-9.63a6,6,0,0,0-3.59-7.7,5.88,5.88,0,0,0-2-.36,6,6,0,0,0-5.65,4l-1,2.89a6,6,0,0,0-5.28-3.16h0a6.13,6.13,0,0,0-.53-1.9,6,6,0,0,0-5.43-3.47Z" />
    <path
      d="M1169.72,530.13a2.2,2.2,0,1,1,4.13,1.51L1166,553.32a2.2,2.2,0,1,1-4.13-1.5Zm-11.11,8.74a2.2,2.2,0,1,0,4.13,1.51l5.21-14.3a2.2,2.2,0,1,0-4.13-1.5Zm19.42-2.34a2.2,2.2,0,1,0,4.13,1.5l3.84-10.55a2.2,2.2,0,1,0-4.13-1.5Z" />
    <path
      d="M1165.89,521.53a3.76,3.76,0,0,1,1.29.22,3.81,3.81,0,0,1,2.27,4.88l-.73,2a3.79,3.79,0,0,1,6.63,3.54l-7.89,21.69a3.81,3.81,0,0,1-3.58,2.51,3.79,3.79,0,0,1-3.43-2.2,3.81,3.81,0,0,1-.13-2.91l3.42-9.4a3.81,3.81,0,0,1-3.07,1.56,3.8,3.8,0,0,1-3.56-5.1l5.2-14.3a3.82,3.82,0,0,1,3.58-2.5m18,1.4a3.74,3.74,0,0,1,3.44,2.19,3.77,3.77,0,0,1,.12,2.91l-3.83,10.55a3.83,3.83,0,0,1-3.59,2.5,3.58,3.58,0,0,1-1.29-.23,3.8,3.8,0,0,1-2.26-4.87l3.83-10.55a3.82,3.82,0,0,1,3.58-2.5m-18-3.6a6,6,0,0,0-5.65,3.95l-5.2,14.29a6,6,0,0,0,3.58,7.7,5.94,5.94,0,0,0,1.43.33l-1.8,4.92a6,6,0,0,0,3.59,7.7,6.13,6.13,0,0,0,2,.36,6,6,0,0,0,5.65-4l5.28-14.5a6,6,0,0,0,5.27,3.16,6,6,0,0,0,5.65-3.95l3.84-10.55a6,6,0,0,0-5.63-8,6,6,0,0,0-5.64,3.95l-1.23,3.37a6,6,0,0,0-3.23-2.81,6.07,6.07,0,0,0-2-.36,6,6,0,0,0-6-5.55Z" />
    <path d="M1086.33,664.54a2.2,2.2,0,1,1,4.13,1.5l-3.85,10.58a2.2,2.2,0,1,1-4.13-1.5Z" />
    <path
      d="M1088.41,661.48a3.79,3.79,0,0,1,3.43,2.2,3.77,3.77,0,0,1,.12,2.91l-3.85,10.58a3.8,3.8,0,0,1-7.14-2.6l3.86-10.58a3.81,3.81,0,0,1,3.58-2.51m0-2.2a6,6,0,0,0-5.65,4l-3.85,10.58a6,6,0,0,0,3.58,7.7,6.22,6.22,0,0,0,2,.36,6,6,0,0,0,5.65-4l3.85-10.58a6,6,0,0,0-5.62-8.06Z" />
    <path d="M1166.46,258.05a2.2,2.2,0,1,1,4.13,1.5l-3.33,9.16a2.2,2.2,0,1,1-4.13-1.51Z" />
    <path
      d="M1168.54,255a3.77,3.77,0,0,1,3.55,5.1l-3.33,9.16a3.8,3.8,0,1,1-7.14-2.6l3.34-9.16a3.8,3.8,0,0,1,3.58-2.5m0-2.2a6,6,0,0,0-5.65,3.95l-3.34,9.16a6,6,0,0,0,3.59,7.69,5.92,5.92,0,0,0,2,.36,6,6,0,0,0,5.65-3.95l3.33-9.16a6,6,0,0,0-5.62-8.05Z" />
    <path
      d="M1358.94,116.46a2.2,2.2,0,1,1,4.13,1.5l-10.19,28a2.2,2.2,0,1,1-4.13-1.5Zm-20,33.24a2.2,2.2,0,1,0,4.13,1.51l5.24-14.4a2.2,2.2,0,1,0-4.13-1.5Z" />
    <path
      d="M1361,113.4a3.81,3.81,0,0,1,3.56,5.11l-10.19,28a3.83,3.83,0,0,1-3.58,2.51,3.81,3.81,0,0,1-3.78-4l-2.48,6.8a3.8,3.8,0,1,1-7.14-2.6l5.24-14.4a3.83,3.83,0,0,1,3.58-2.51,3.81,3.81,0,0,1,3.44,2.2,3.85,3.85,0,0,1,.35,1.85l7.42-20.39a3.81,3.81,0,0,1,3.58-2.51m0-2.2a6,6,0,0,0-5.65,4l-5.79,15.91a6.11,6.11,0,0,0-1.3-.66,6,6,0,0,0-7.69,3.6l-5.25,14.39a6,6,0,0,0,3.59,7.7,5.92,5.92,0,0,0,2,.36,6,6,0,0,0,5.65-4l.84-2.32a6.11,6.11,0,0,0,1.3.66,6,6,0,0,0,7.7-3.6l10.19-28a6,6,0,0,0-3.59-7.7,5.88,5.88,0,0,0-2-.36Z" />
    <path
      d="M1695.78,1095.91a2.2,2.2,0,1,1,4.13,1.5l-10.68,29.35a2.2,2.2,0,1,1-4.13-1.51Zm-20.64,34.92a2.2,2.2,0,1,0,4.14,1.51l5.52-15.18a2.2,2.2,0,1,0-4.13-1.5Z" />
    <path
      d="M1697.86,1092.86a3.78,3.78,0,0,1,3.56,5.1l-10.68,29.34a3.83,3.83,0,0,1-3.58,2.51,3.73,3.73,0,0,1-1.29-.23,3.79,3.79,0,0,1-2.49-3.82l-2.6,7.13a3.82,3.82,0,0,1-3.58,2.5,3.58,3.58,0,0,1-1.29-.23,3.8,3.8,0,0,1-2.27-4.87l5.53-15.18a3.8,3.8,0,0,1,7.36,1.55l7.75-21.3a3.8,3.8,0,0,1,3.58-2.5m0-2.2a6,6,0,0,0-5.65,3.95l-6.12,16.82a5.48,5.48,0,0,0-1.3-.66,6,6,0,0,0-7.69,3.59l-5.53,15.18a6,6,0,0,0,3.59,7.69,5.88,5.88,0,0,0,2,.36,6,6,0,0,0,5.65-3.95l1-2.65a6.11,6.11,0,0,0,1.3.66,6,6,0,0,0,7.69-3.59l10.68-29.35a6,6,0,0,0-5.62-8Z" />
    <path
      d="M309.56,1009.46a2.2,2.2,0,1,1,4.13,1.5l-6.2,17a2.2,2.2,0,1,1-4.13-1.5Zm-10.09,5.95a2.2,2.2,0,1,0,4.13,1.5l4-11a2.2,2.2,0,1,0-4.13-1.51Zm18.87-.85a2.2,2.2,0,1,0,4.13,1.5l2.87-7.89a2.2,2.2,0,1,0-4.13-1.5Z" />
    <path
      d="M305.53,1001.39a3.81,3.81,0,0,1,3.56,5.11l-.53,1.47a3.77,3.77,0,0,1,4.36-1.34,3.82,3.82,0,0,1,2.27,4.88l-6.19,17a3.83,3.83,0,0,1-3.58,2.51,3.81,3.81,0,0,1-3.56-5.11l2.74-7.52a3.85,3.85,0,0,1-3.08,1.56,3.58,3.58,0,0,1-1.29-.23,3.73,3.73,0,0,1-2.14-2,3.79,3.79,0,0,1-.13-2.9l4-11a3.83,3.83,0,0,1,3.58-2.51m17.75,2.23a3.64,3.64,0,0,1,1.3.23,3.73,3.73,0,0,1,2.14,2,3.79,3.79,0,0,1,.12,2.9l-2.87,7.89a3.8,3.8,0,1,1-7.14-2.6l2.87-7.89a3.82,3.82,0,0,1,3.58-2.5m-17.75-4.43a6,6,0,0,0-5.65,4l-4,11a6,6,0,0,0,3.58,7.69,5.75,5.75,0,0,0,1.42.33l-1.11,3a6,6,0,1,0,11.28,4.1l4-11.12a6,6,0,0,0,3.24,2.81,5.92,5.92,0,0,0,2,.36,6,6,0,0,0,5.65-4l2.87-7.9a6,6,0,0,0-5.63-8.05,6,6,0,0,0-5.64,4l-.73,2a6,6,0,0,0-3.23-2.81,6.23,6.23,0,0,0-2.05-.36h-.19a6.18,6.18,0,0,0-.48-1.55,6,6,0,0,0-5.43-3.47Z" />
    <path
      d="M1269.57,1168.89a2.2,2.2,0,1,1,4.13,1.51l-8.25,22.66a2.2,2.2,0,1,1-4.13-1.5Zm-11.32,9.33a2.2,2.2,0,1,0,4.13,1.5l5.46-15a2.2,2.2,0,1,0-4.13-1.51Zm19.53-2.66a2.2,2.2,0,1,0,4.13,1.5l4-11.11a2.2,2.2,0,1,0-4.14-1.5Z" />
    <path
      d="M1265.79,1160.17a3.8,3.8,0,0,1,3.55,5.11l-.77,2.13a3.8,3.8,0,0,1,6.64,3.53l-8.25,22.67a3.8,3.8,0,0,1-7,.31,3.77,3.77,0,0,1-.12-2.91l3.56-9.8a3.79,3.79,0,0,1-3.07,1.57,3.87,3.87,0,0,1-1.3-.23,3.8,3.8,0,0,1-2.26-4.88l5.46-15a3.81,3.81,0,0,1,3.58-2.51m18.11,1.23a3.76,3.76,0,0,1,1.29.22,3.81,3.81,0,0,1,2.27,4.88l-4,11.11a3.82,3.82,0,0,1-3.58,2.5,3.76,3.76,0,0,1-1.29-.22,3.81,3.81,0,0,1-2.27-4.88l4-11.11a3.82,3.82,0,0,1,3.58-2.5m-18.11-3.43a6,6,0,0,0-5.65,4l-5.46,15a6,6,0,0,0,3.58,7.7,6.34,6.34,0,0,0,1.42.32l-1.93,5.32a6,6,0,0,0,5.63,8.06,6,6,0,0,0,5.64-4l5.54-15.21a6,6,0,0,0,5.28,3.16,6,6,0,0,0,5.65-4l4-11.11a6,6,0,0,0-11.28-4.1l-1.33,3.66a6,6,0,0,0-3.23-2.81,6.28,6.28,0,0,0-1.92-.36,6,6,0,0,0-3.94-5.31,6,6,0,0,0-2-.36Z" />
    <path d="M979.75,1520.21a2.2,2.2,0,0,1,4.14,1.5l-3.39,9.3a2.2,2.2,0,1,1-4.13-1.5Z" />
    <path
      d="M981.83,1517.16a3.76,3.76,0,0,1,1.29.22,3.81,3.81,0,0,1,2.27,4.88l-3.38,9.3a3.84,3.84,0,0,1-3.58,2.5,3.6,3.6,0,0,1-1.3-.23,3.8,3.8,0,0,1-2.26-4.87l3.38-9.3a3.8,3.8,0,0,1,3.58-2.5m0-2.2a6,6,0,0,0-5.65,4l-3.38,9.3a6,6,0,0,0,5.63,8,6,6,0,0,0,5.64-4l3.39-9.3a6,6,0,0,0-5.63-8Z" />
    <path d="M1845.2,91.5a2.2,2.2,0,1,1,4.13,1.5l-5,13.8a2.2,2.2,0,1,1-4.13-1.51Z" />
    <path
      d="M1847.27,88.44a3.8,3.8,0,0,1,3.56,5.11l-5,13.79a3.8,3.8,0,1,1-7.14-2.59l5-13.8a3.83,3.83,0,0,1,3.58-2.51m0-2.2a6,6,0,0,0-5.64,4l-5,13.79a6,6,0,0,0,3.59,7.7,5.92,5.92,0,0,0,2,.36,6,6,0,0,0,5.65-4l5-13.8a6,6,0,0,0-3.58-7.7,6.23,6.23,0,0,0-2-.36Z" />
    <path d="M229.12,1416.1a2.2,2.2,0,1,1,4.13,1.51l-2.76,7.57a2.2,2.2,0,1,1-4.13-1.51Z" />
    <path
      d="M231.19,1413.05a3.64,3.64,0,0,1,1.3.23,3.73,3.73,0,0,1,2.14,2,3.79,3.79,0,0,1,.12,2.9l-2.75,7.57a3.83,3.83,0,0,1-3.58,2.51,3.8,3.8,0,0,1-3.56-5.11l2.75-7.57a3.84,3.84,0,0,1,3.58-2.5m0-2.2a6,6,0,0,0-5.64,4l-2.76,7.57a6,6,0,1,0,11.27,4.11l2.76-7.58a6,6,0,0,0-5.63-8.05Z" />
    <path
      d="M1218.25,1863.47a2.2,2.2,0,1,1-4.13-1.5l5.73-15.74a2.2,2.2,0,1,1,4.13,1.51Zm14.48-18a2.2,2.2,0,1,0-4.13-1.51l-2.67,7.33a2.2,2.2,0,1,0,4.14,1.5Z" />
    <path
      d="M1230.68,1840.9a3.8,3.8,0,0,1,3.56,5.11l-2.67,7.32a3.82,3.82,0,0,1-3.58,2.51,3.77,3.77,0,0,1-1.29-.23,3.81,3.81,0,0,1-2.49-3.83l-4.46,12.24a3.79,3.79,0,0,1-7,.31,3.77,3.77,0,0,1-.12-2.91l5.72-15.73a3.8,3.8,0,0,1,4.88-2.28,3.79,3.79,0,0,1,2.48,3.82l1.4-3.82a3.81,3.81,0,0,1,3.58-2.51m0-2.2a6,6,0,0,0-5.38,3.32,6.41,6.41,0,0,0-1.33-.68,5.9,5.9,0,0,0-2-.36,6,6,0,0,0-5.64,4l-5.73,15.74a6,6,0,0,0,3.58,7.7,6.14,6.14,0,0,0,2,.36,6,6,0,0,0,5.64-4l2.83-7.76a5.89,5.89,0,0,0,3.34,1,6,6,0,0,0,5.65-4l2.66-7.32a6,6,0,0,0-5.62-8.06Z" />
    <path d="M1638.26,660.05a2.2,2.2,0,1,1,4.13,1.5l-3.05,8.4a2.2,2.2,0,0,1-4.14-1.5Z" />
    <path
      d="M1640.34,657a3.8,3.8,0,0,1,3.56,5.11l-3.06,8.4a3.81,3.81,0,0,1-3.58,2.5,3.76,3.76,0,0,1-1.29-.22,3.81,3.81,0,0,1-2.27-4.88l3.06-8.4a3.81,3.81,0,0,1,3.58-2.51m0-2.2a6,6,0,0,0-5.65,4l-3.06,8.4a6,6,0,0,0,3.59,7.69,5.88,5.88,0,0,0,2,.36,6,6,0,0,0,5.65-4l3.06-8.4a6,6,0,0,0-3.59-7.69,5.94,5.94,0,0,0-2-.37Z" />
    <path d="M837.59,85.85a2.2,2.2,0,1,1,4.14,1.5L835,105.71a2.2,2.2,0,1,1-4.13-1.5Z" />
    <path
      d="M839.67,82.8A3.76,3.76,0,0,1,841,83a3.82,3.82,0,0,1,2.27,4.88l-6.68,18.36a3.83,3.83,0,0,1-3.58,2.51,3.81,3.81,0,0,1-3.44-2.2,3.81,3.81,0,0,1-.12-2.91l6.68-18.36a3.81,3.81,0,0,1,3.58-2.5m0-2.2a6,6,0,0,0-5.65,4l-6.68,18.36A6,6,0,0,0,833,111a6,6,0,0,0,5.64-4l6.69-18.36a6,6,0,0,0-.2-4.58,6,6,0,0,0-5.43-3.47Z" />
    <path
      d="M331.52,77a2.2,2.2,0,1,1,4.14,1.5l-6.18,17A2.2,2.2,0,1,1,325.35,94ZM321.44,82.9a2.2,2.2,0,1,0,4.14,1.51l4-10.93A2.2,2.2,0,1,0,325.42,72Zm18.87-.83a2.2,2.2,0,1,0,4.13,1.51l2.86-7.87a2.2,2.2,0,1,0-4.13-1.5Z" />
    <path
      d="M327.5,68.92a3.8,3.8,0,0,1,3.56,5.1l-.54,1.47a3.85,3.85,0,0,1,3.08-1.56,3.76,3.76,0,0,1,1.29.22A3.82,3.82,0,0,1,337.16,79L331,96a3.8,3.8,0,0,1-7.14-2.6l2.74-7.5a3.85,3.85,0,0,1-3.08,1.56,3.81,3.81,0,0,1-3.56-5.1l4-10.93a3.81,3.81,0,0,1,3.58-2.51m17.75,2.23a3.81,3.81,0,0,1,3.56,5.11l-2.87,7.86a3.79,3.79,0,0,1-4.87,2.28,3.81,3.81,0,0,1-2.27-4.87l2.87-7.87a3.81,3.81,0,0,1,3.58-2.51M327.5,66.72a6,6,0,0,0-5.65,4l-4,10.93a6,6,0,0,0,.2,4.59,6,6,0,0,0,4.81,3.44l-1.1,3a6,6,0,0,0,3.58,7.7,5.92,5.92,0,0,0,2,.36,6,6,0,0,0,5.65-3.95l4-11.1a6,6,0,0,0,5.27,3.17,6,6,0,0,0,5.65-4L350.87,77a6,6,0,0,0-3.58-7.7,6.17,6.17,0,0,0-2-.36,6,6,0,0,0-5.65,4l-.72,2a6,6,0,0,0-3.24-2.8,5.88,5.88,0,0,0-2-.36h-.2a6,6,0,0,0-3.86-4.65,5.92,5.92,0,0,0-2-.36Z" />
    <path
      d="M1235.8,884.35a2.2,2.2,0,1,1,4.13,1.51l-5.69,15.65a2.2,2.2,0,0,1-4.14-1.5Zm-14.44,17.92a2.2,2.2,0,1,0,4.13,1.5l2.65-7.28A2.2,2.2,0,1,0,1224,895Z" />
    <path
      d="M1237.88,881.3a3.81,3.81,0,0,1,1.29.23,3.73,3.73,0,0,1,2.14,2,3.79,3.79,0,0,1,.13,2.9l-5.7,15.66a3.81,3.81,0,0,1-3.58,2.5,3.76,3.76,0,0,1-1.29-.22,3.82,3.82,0,0,1-2.49-3.83l-1.39,3.81a3.8,3.8,0,1,1-7.14-2.6l2.65-7.28a3.8,3.8,0,0,1,7.37,1.55l4.43-12.19a3.82,3.82,0,0,1,3.58-2.5m0-2.2a6,6,0,0,0-5.65,3.95l-2.8,7.71a6.11,6.11,0,0,0-1.3-.66,6,6,0,0,0-7.69,3.59l-2.65,7.28a6,6,0,0,0,3.58,7.69,5.92,5.92,0,0,0,2,.36,6,6,0,0,0,5.37-3.3,5.82,5.82,0,0,0,1.34.68,5.88,5.88,0,0,0,2,.36,6,6,0,0,0,5.65-4l5.7-15.65a6,6,0,0,0-.2-4.59,6,6,0,0,0-3.39-3.11,5.88,5.88,0,0,0-2-.36Z" />
    <path d="M1342.44,861a2.2,2.2,0,1,1,4.13,1.5l-2,5.45a2.2,2.2,0,1,1-4.14-1.5Z" />
    <path
      d="M1344.51,857.92a3.73,3.73,0,0,1,1.29.23,3.81,3.81,0,0,1,2.27,4.88l-2,5.45a3.81,3.81,0,0,1-3.58,2.5,3.55,3.55,0,0,1-1.29-.23,3.81,3.81,0,0,1-2.27-4.87l2-5.45a3.83,3.83,0,0,1,3.58-2.51m0-2.2a6,6,0,0,0-5.64,4l-2,5.45a6,6,0,0,0,3.59,7.69,5.88,5.88,0,0,0,2,.36,6,6,0,0,0,5.65-3.95l2-5.45a6,6,0,0,0-5.63-8.06Z" />
  </g>
</svg>